<?xml version="1.0" encoding="UTF-8" standalone="no"?>
<!-- Created with Inkscape (http://www.inkscape.org/) -->

<svg
   xmlns:dc="http://purl.org/dc/elements/1.1/"
   xmlns:cc="http://creativecommons.org/ns#"
   xmlns:rdf="http://www.w3.org/1999/02/22-rdf-syntax-ns#"
   xmlns:svg="http://www.w3.org/2000/svg"
   xmlns="http://www.w3.org/2000/svg"
   xmlns:sodipodi="http://sodipodi.sourceforge.net/DTD/sodipodi-0.dtd"
   xmlns:inkscape="http://www.inkscape.org/namespaces/inkscape"
   width="210mm"
   height="297mm"
   viewBox="0 0 744.09448819 1052.3622047"
   id="svg2"
   version="1.1"
   inkscape:version="0.91 r13725"
   sodipodi:docname="drawing.svg">
  <defs
     id="defs4" />
  <sodipodi:namedview
     id="base"
     pagecolor="#ffffff"
     bordercolor="#666666"
     borderopacity="1.0"
     inkscape:pageopacity="0.0"
     inkscape:pageshadow="2"
     inkscape:zoom="0.98994949"
     inkscape:cx="60.921377"
     inkscape:cy="686.43091"
     inkscape:document-units="px"
     inkscape:current-layer="layer1"
     showgrid="false"
     showguides="true"
     inkscape:window-width="2560"
     inkscape:window-height="1417"
     inkscape:window-x="1592"
     inkscape:window-y="-8"
     inkscape:window-maximized="1" />
  <metadata
     id="metadata7">
    <rdf:RDF>
      <cc:Work
         rdf:about="">
        <dc:format>image/svg+xml</dc:format>
        <dc:type
           rdf:resource="http://purl.org/dc/dcmitype/StillImage" />
        <dc:title></dc:title>
      </cc:Work>
    </rdf:RDF>
  </metadata>
  <g
     inkscape:label="Layer 1"
     inkscape:groupmode="layer"
     id="layer1">
    <path
       sodipodi:type="star"
       style="opacity:1;fill:#e4a773;fill-opacity:1;stroke:none;stroke-width:6;stroke-miterlimit:4;stroke-dasharray:none;stroke-opacity:1"
       id="path4138"
       sodipodi:sides="5"
       sodipodi:cx="57.828191"
       sodipodi:cy="278.15335"
       sodipodi:r1="51.521648"
       sodipodi:r2="24.912004"
       sodipodi:arg1="-1.5707963"
       sodipodi:arg2="-0.9424778"
       inkscape:flatsided="false"
       inkscape:rounded="0"
       inkscape:randomized="0"
       d="m 57.828191,226.6317 14.642908,31.36742 34.357091,4.23317 -25.307276,23.61929 6.59094,33.98366 -30.283664,-16.76988 -30.283666,16.76988 6.590942,-33.98366 -25.3072752,-23.6193 34.3570902,-4.23316 z"
       inkscape:transform-center-y="-4.9198704"
       inkscape:export-xdpi="90"
       inkscape:export-ydpi="90" />
    <circle
       style="opacity:1;fill:#737be4;fill-opacity:1;stroke:none;stroke-width:6;stroke-miterlimit:4;stroke-dasharray:none;stroke-opacity:1"
       id="path4140"
       cx="217.53679"
       cy="291.03882"
       r="49"
       inkscape:export-xdpi="90"
       inkscape:export-ydpi="90" />
    <rect
       style="opacity:1;fill:#73abe4;fill-opacity:1;stroke:none;stroke-width:6;stroke-miterlimit:4;stroke-dasharray:none;stroke-opacity:1"
       id="rect4142"
       width="58.16077"
       height="58.16077"
       x="274.22702"
       y="-168.634"
       transform="matrix(0.5387084,0.84249229,-0.5387084,0.84249229,0,0)"
       inkscape:export-xdpi="90"
       inkscape:export-ydpi="90" />
    <path
       sodipodi:type="star"
       style="opacity:1;fill:#e473d0;fill-opacity:1;stroke:none;stroke-width:6;stroke-miterlimit:4;stroke-dasharray:none;stroke-opacity:1"
       id="path4144"
       sodipodi:sides="3"
       sodipodi:cx="362.66064"
       sodipodi:cy="160.7369"
       sodipodi:r1="56.580326"
       sodipodi:r2="28.290163"
       sodipodi:arg1="-1.5707963"
       sodipodi:arg2="-0.52359878"
       inkscape:flatsided="false"
       inkscape:rounded="0"
       inkscape:randomized="0"
       d="m 362.66065,104.15657 24.49999,42.43524 24.5,42.43525 -49,0 -49,-1e-5 24.5,-42.43524 z"
       inkscape:transform-center-y="-14.145084"
       inkscape:transform-center-x="-2.1684853e-005"
       inkscape:export-xdpi="90"
       inkscape:export-ydpi="90" />
    <path
       sodipodi:type="star"
       style="opacity:1;fill:#c0ca38;fill-opacity:1;stroke:none;stroke-width:6;stroke-miterlimit:4;stroke-dasharray:none;stroke-opacity:1"
       id="path4148"
       sodipodi:sides="3"
       sodipodi:cx="199.72633"
       sodipodi:cy="436.42679"
       sodipodi:r1="49"
       sodipodi:r2="49"
       sodipodi:arg1="-1.5707963"
       sodipodi:arg2="-0.52359878"
       inkscape:flatsided="false"
       inkscape:rounded="0"
       inkscape:randomized="0"
       d="m 199.72633,387.42679 42.43525,24.5 0,49 -42.43525,24.5 -42.43524,-24.5 0,-49 z"
       inkscape:export-xdpi="90"
       inkscape:export-ydpi="90" />
    <path
       sodipodi:type="star"
       style="opacity:1;fill:#73e48f;fill-opacity:1;stroke:none;stroke-width:6;stroke-miterlimit:4;stroke-dasharray:none;stroke-opacity:1"
       id="path4150"
       sodipodi:sides="5"
       sodipodi:cx="384.6435"
       sodipodi:cy="272.79186"
       sodipodi:r1="35.611595"
       sodipodi:r2="50.873707"
       sodipodi:arg1="-1.5707963"
       sodipodi:arg2="-0.94247777"
       inkscape:flatsided="false"
       inkscape:rounded="0.4"
       inkscape:randomized="0"
       d="m 384.64349,237.18027 c 12.16512,1e-5 20.06104,-12.69657 29.90282,-5.54609 9.84178,7.15047 0.2066,18.58339 3.96582,30.1531 3.75923,11.56971 18.27436,15.15572 14.51513,26.72543 -3.75922,11.56971 -17.61001,5.93907 -27.4518,13.08955 -9.84178,7.15047 -8.76685,22.06332 -20.93197,22.06332 -12.16511,0 -11.09018,-14.91285 -20.93197,-22.06332 -9.84178,-7.15048 -23.69257,-1.51984 -27.4518,-13.08955 -3.75922,-11.56971 10.75591,-15.15572 14.51513,-26.72543 3.75923,-11.56971 -5.87595,-23.00263 3.96583,-30.1531 9.84178,-7.15048 17.7377,5.54609 29.90281,5.54609 z"
       inkscape:export-xdpi="90"
       inkscape:export-ydpi="90" />
    <path
       style="opacity:1;fill:#e08aa9;fill-opacity:1;stroke:none;stroke-width:6;stroke-miterlimit:4;stroke-dasharray:none;stroke-opacity:1"
       d="m 55.001795,353.38472 a 49.000215,49.000215 0 0 0 -49.000501,48.9995 49.000215,49.000215 0 0 0 49.000501,49.0005 49.000215,49.000215 0 0 0 48.999505,-49.0005 49.000215,49.000215 0 0 0 -48.999505,-48.9995 z m 0,22.67146 A 26.328474,26.328474 0 0 1 81.32984,402.38422 26.328474,26.328474 0 0 1 55.001795,428.71327 26.328474,26.328474 0 0 1 28.672751,402.38422 26.328474,26.328474 0 0 1 55.001795,376.05618 Z"
       id="circle4152"
       inkscape:connector-curvature="0"
       inkscape:export-xdpi="90"
       inkscape:export-ydpi="90" />
    <path
       style="fill:#000000;fill-opacity:1;fill-rule:evenodd;stroke:none;stroke-width:1px;stroke-linecap:butt;stroke-linejoin:miter;stroke-opacity:1"
       d="m -222.14286,590.93364 c 0,0 46.84792,-67.5445 87.14287,-9.28573 40.29495,58.25878 -87.14287,137.14288 -87.14287,137.14288 z"
       id="path4157"
       inkscape:connector-curvature="0"
       sodipodi:nodetypes="czcc" />
    <path
       style="fill:#ca3838;fill-opacity:1;fill-rule:evenodd;stroke:none;stroke-width:1px;stroke-linecap:butt;stroke-linejoin:miter;stroke-opacity:1"
       d="m 79.959365,112.38683 c -6.044097,0.10105 -12.51068,3.60149 -18.67965,13.35249 -20.779694,32.84549 44.938545,77.31909 44.938545,77.31909 0,0 65.71822,-44.4736 44.93853,-77.31909 -20.7797,-32.845497 -44.93853,5.23484 -44.93853,5.23484 0,0 -11.943919,-18.82665 -26.258895,-18.58733 z"
       id="path4161"
       inkscape:connector-curvature="0"
       inkscape:export-xdpi="90"
       inkscape:export-ydpi="90" />
    <path
       style="opacity:1;fill:#38ca48;fill-opacity:1;stroke:none;stroke-width:6;stroke-miterlimit:4;stroke-dasharray:none;stroke-opacity:1"
       d="m 352.75778,361.28416 0,31.81218 -31.81119,0 0,34.37663 31.81119,0 0,31.81119 34.37663,0 0,-31.81119 31.81118,0 0,-34.37663 -31.81118,0 0,-31.81218 -34.37663,0 z"
       id="rect4166"
       inkscape:connector-curvature="0"
       inkscape:export-xdpi="90"
       inkscape:export-ydpi="90" />
    <rect
       style="opacity:1;fill:#ea9f18;fill-opacity:1;stroke:none;stroke-width:6;stroke-miterlimit:4;stroke-dasharray:none;stroke-opacity:1"
       id="rect4171"
       width="98"
       height="98"
       x="150.48694"
       y="525.20575"
       inkscape:export-xdpi="90"
       inkscape:export-ydpi="90" />
    <path
       style="opacity:1;fill:#ebebeb;fill-opacity:1;stroke:none;stroke-width:6;stroke-miterlimit:4;stroke-dasharray:none;stroke-opacity:1"
       d="m 342.77484,493.87119 a 39.137052,39.137052 0 0 1 18.2967,33.07317 39.137052,39.137052 0 0 1 -39.13737,39.1365 39.137052,39.137052 0 0 1 -31.26843,-15.6644 49.090987,49.090987 0 0 0 48.462,41.45473 49.090987,49.090987 0 0 0 49.09099,-49.09097 49.090987,49.090987 0 0 0 -45.44389,-48.90903 z"
       id="path4173"
       inkscape:connector-curvature="0"
       inkscape:export-xdpi="90"
       inkscape:export-ydpi="90" />
  </g>
</svg>
