<?xml version="1.0" encoding="UTF-8" standalone="no"?>
<svg id="svg4136" xmlns:rdf="http://www.w3.org/1999/02/22-rdf-syntax-ns#" xmlns="http://www.w3.org/2000/svg" height="26" width="26" version="1.1" xmlns:cc="http://creativecommons.org/ns#" xmlns:dc="http://purl.org/dc/elements/1.1/" viewBox="0 0 26 26">
 <path id="path4168" d="m3 0.052734a2.9474 2.9474 0 0 0 -2.9473 2.9473v6a2.9474 2.9474 0 0 0 2.9473 2.947h2a2.9474 2.9474 0 0 0 2.9473 -2.947v-1.0527h1.0527a2.9474 2.9474 0 0 0 2.947 -2.9473v-2a2.9474 2.9474 0 0 0 -2.947 -2.9473h-6zm14 0a2.9474 2.9474 0 0 0 -2.947 2.9473v2a2.9474 2.9474 0 0 0 2.947 2.9473h1.0527v1.0527a2.9474 2.9474 0 0 0 2.947 2.947h2a2.9474 2.9474 0 0 0 2.947 -2.947v-6a2.9474 2.9474 0 0 0 -2.947 -2.9473h-6zm-14 14a2.9474 2.9474 0 0 0 -2.9473 2.947v6a2.9474 2.9474 0 0 0 2.9473 2.947h6a2.9474 2.9474 0 0 0 2.947 -2.947v-2a2.9474 2.9474 0 0 0 -2.947 -2.947h-1.0527v-1.0527a2.9474 2.9474 0 0 0 -2.9473 -2.947h-2zm18 0a2.9474 2.9474 0 0 0 -2.947 2.947v1.0527h-1.0527a2.9474 2.9474 0 0 0 -2.947 2.947v2a2.9474 2.9474 0 0 0 2.947 2.947h6a2.9474 2.9474 0 0 0 2.947 -2.947v-6a2.9474 2.9474 0 0 0 -2.947 -2.947h-2z"/>
 <path id="path4138" fill="none" d="m0 0h24v24h-24z"/>
 <path id="path4140" fill="#fff" d="m5 17h-2v6h6v-2h-4zm-2-8h2v-4h4v-2h-6zm18 12h-4v2h6v-6h-2zm-4-18v2h4v4h2v-6z"/>
</svg>
