<?xml version="1.0" encoding="UTF-8" standalone="no"?>
<svg
   xmlns:dc="http://purl.org/dc/elements/1.1/"
   xmlns:cc="http://creativecommons.org/ns#"
   xmlns:rdf="http://www.w3.org/1999/02/22-rdf-syntax-ns#"
   xmlns:svg="http://www.w3.org/2000/svg"
   xmlns="http://www.w3.org/2000/svg"
   xmlns:sodipodi="http://sodipodi.sourceforge.net/DTD/sodipodi-0.dtd"
   xmlns:inkscape="http://www.inkscape.org/namespaces/inkscape"
   height="26"
   viewBox="0 0 26 26"
   width="26"
   id="svg2"
   version="1.1"
   inkscape:version="0.91 r13725"
   sodipodi:docname="menu.svg"
   style="fill:#000000">
  <metadata
     id="metadata12">
    <rdf:RDF>
      <cc:Work
         rdf:about="">
        <dc:format>image/svg+xml</dc:format>
        <dc:type
           rdf:resource="http://purl.org/dc/dcmitype/StillImage" />
        <dc:title></dc:title>
      </cc:Work>
    </rdf:RDF>
  </metadata>
  <defs
     id="defs10" />
  <sodipodi:namedview
     pagecolor="#ffffff"
     bordercolor="#666666"
     borderopacity="1"
     objecttolerance="10"
     gridtolerance="10"
     guidetolerance="10"
     inkscape:pageopacity="0"
     inkscape:pageshadow="2"
     inkscape:window-width="1288"
     inkscape:window-height="931"
     id="namedview8"
     showgrid="false"
     inkscape:zoom="13.906433"
     inkscape:cx="9.280284"
     inkscape:cy="10.544369"
     inkscape:window-x="4757"
     inkscape:window-y="333"
     inkscape:window-maximized="0"
     inkscape:current-layer="svg2" />
  <path
     sodipodi:type="inkscape:offset"
     inkscape:radius="2.9935293"
     inkscape:original="M 3 5 L 3 7 L 23 7 L 23 5 L 3 5 z M 3 12 L 3 14 L 23 14 L 23 12 L 3 12 z M 3 19 L 3 21 L 23 21 L 23 19 L 3 19 z "
     style="fill:#000000"
     id="path4163"
     d="M 3,2.0058594 A 2.9938287,2.9938287 0 0 0 0.00585938,5 l 0,2 A 2.9938287,2.9938287 0 0 0 1.3574219,9.5 2.9938287,2.9938287 0 0 0 0.00585938,12 l 0,2 A 2.9938287,2.9938287 0 0 0 1.3574219,16.5 2.9938287,2.9938287 0 0 0 0.00585938,19 l 0,2 A 2.9938287,2.9938287 0 0 0 3,23.994141 l 20,0 A 2.9938287,2.9938287 0 0 0 25.994141,21 l 0,-2 A 2.9938287,2.9938287 0 0 0 24.642578,16.5 2.9938287,2.9938287 0 0 0 25.994141,14 l 0,-2 A 2.9938287,2.9938287 0 0 0 24.642578,9.5 2.9938287,2.9938287 0 0 0 25.994141,7 l 0,-2 A 2.9938287,2.9938287 0 0 0 23,2.0058594 l -20,0 z" />
  <path
     id="path6"
     style="fill:#ffffff"
     d="m 2.9999999,5 0,2 L 23,7 23,5 2.9999999,5 Z m 0,9 L 23,14 l 0,-2 -20.0000001,0 0,2 z m 0,7 L 23,21 l 0,-2 -20.0000001,0 0,2 z"
     inkscape:connector-curvature="0" />
</svg>
