<?xml version="1.0" encoding="UTF-8" standalone="no"?>
<svg
   xmlns:dc="http://purl.org/dc/elements/1.1/"
   xmlns:cc="http://creativecommons.org/ns#"
   xmlns:rdf="http://www.w3.org/1999/02/22-rdf-syntax-ns#"
   xmlns:svg="http://www.w3.org/2000/svg"
   xmlns="http://www.w3.org/2000/svg"
   xmlns:sodipodi="http://sodipodi.sourceforge.net/DTD/sodipodi-0.dtd"
   xmlns:inkscape="http://www.inkscape.org/namespaces/inkscape"
   viewBox="0 0 64 64"
   enable-background="new 0 0 64 64"
   id="svg2"
   version="1.1"
   inkscape:version="0.91 r13725"
   sodipodi:docname="emojione-cat.svg">
  <metadata
     id="metadata80">
    <rdf:RDF>
      <cc:Work
         rdf:about="">
        <dc:format>image/svg+xml</dc:format>
        <dc:type
           rdf:resource="http://purl.org/dc/dcmitype/StillImage" />
        <dc:title></dc:title>
      </cc:Work>
    </rdf:RDF>
  </metadata>
  <defs
     id="defs78" />
  <sodipodi:namedview
     pagecolor="#ffffff"
     bordercolor="#666666"
     borderopacity="1"
     objecttolerance="10"
     gridtolerance="10"
     guidetolerance="10"
     inkscape:pageopacity="0"
     inkscape:pageshadow="2"
     inkscape:window-width="1248"
     inkscape:window-height="797"
     id="namedview76"
     showgrid="false"
     inkscape:zoom="7.375"
     inkscape:cx="31.608501"
     inkscape:cy="23.483797"
     inkscape:window-x="2665"
     inkscape:window-y="327"
     inkscape:window-maximized="0"
     inkscape:current-layer="svg2" />
  <path
     style="fill:#3e4347"
     inkscape:connector-curvature="0"
     id="path6"
     d="m 8.10815,26.84655 c 0.2637088,-1.003515 0.6467316,-1.915683 1.1398055,-2.716524 0.6082333,-0.983289 1.3717665,-1.775366 2.2700875,-2.351957 1.048402,-0.676634 2.30555,-1.035079 3.535942,-1.003929 1.266804,0.01965 2.584289,0.453385 3.659281,1.201727 0.984887,0.676691 1.823242,1.624339 2.422867,2.734137 0.511043,0.942007 0.861856,2.003578 1.043851,3.16221 0.278989,1.839128 0.134848,3.76368 -0.436008,5.886758 l -0.009,0.03027 c -0.0237,0.08461 -0.05277,0.16868 -0.08364,0.254066 -0.469933,1.231034 -1.732189,1.93961 -3.068268,1.719377 -0.211442,-0.03556 -0.42118,-0.0939 -0.622969,-0.174032 -0.720032,-0.286495 -1.291581,-0.826025 -1.614178,-1.523517 -0.320361,-0.697457 -0.34929,-1.467667 -0.08235,-2.167435 0.493354,-1.297753 0.724767,-2.549121 0.666629,-3.620807 -0.0526,-1.082334 -0.44231,-2.032256 -1.044733,-2.542756 -0.262973,-0.226913 -0.570129,-0.37536 -0.888214,-0.426923 -0.379623,-0.06327 -0.765774,0.0031 -1.152138,0.195516 -0.400772,0.198491 -0.789016,0.537623 -1.122926,0.976017 -0.342995,0.447195 -0.632046,0.990067 -0.863818,1.615699 -0.425643,1.145861 -0.656274,2.545288 -0.686677,4.151399 -0.01486,0.683192 0.0089,1.441691 0.07387,2.250939 0.06357,0.785967 0.199458,1.55206 0.33361,2.258639 0.331334,1.640923 0.789183,3.03204 1.3991,4.254265 0.692749,1.385899 1.585581,2.508399 2.652128,3.338011 1.070025,0.835928 2.423815,1.433938 3.912674,1.722343 1.216375,0.238014 1.676952,0.97795 1.591677,1.560284 -0.07743,0.539073 -0.636375,1.093765 -1.948109,0.889573 l -0.145929,-0.02065 C 17.181371,48.192886 15.44817,47.49001 14.034081,46.4639 12.600261,45.441056 11.343667,43.988514 10.396888,42.263132 9.6073972,40.829182 8.9984001,39.21069 8.5382406,37.316805 8.356143,36.58755 8.2224519,35.851906 8.0946522,35.139614 L 8.0355262,34.806801 C 7.8748269,33.884665 7.7670418,33.038509 7.7075215,32.223087 7.5603354,30.167335 7.6885085,28.459903 8.1099958,26.843001"
     inkscape:export-filename="C:\Users\dave\Code\mmomatch3\img\skin\emojione-animals\balls\9.png"
     inkscape:export-xdpi="146.99001"
     inkscape:export-ydpi="146.99001" />
  <path
     style="fill:#3e4347"
     inkscape:connector-curvature="0"
     id="path8"
     d="m 46.732,55.942 c 1.766,2.256 9.703,0.047 10.988,-2.555 C 62.96,42.77 57.714,38.18 57.714,38.18 l -10.982,1.471 c 0,0 -2.253,13.411 0,16.291"
     inkscape:export-filename="C:\Users\dave\Code\mmomatch3\img\skin\emojione-animals\balls\9.png"
     inkscape:export-xdpi="146.99001"
     inkscape:export-ydpi="146.99001" />
  <path
     style="fill:#3e4347"
     inkscape:connector-curvature="0"
     id="path10"
     d="M 31.818,55.942 C 30.051,58.198 22.113,55.989 20.829,53.387 15.587,42.77 20.833,38.18 20.833,38.18 l 10.985,1.471 c 0,0 2.252,13.411 0,16.291"
     inkscape:export-filename="C:\Users\dave\Code\mmomatch3\img\skin\emojione-animals\balls\9.png"
     inkscape:export-xdpi="146.99001"
     inkscape:export-ydpi="146.99001" />
  <g
     fill="#fff"
     id="g12"
     inkscape:export-filename="C:\Users\dave\Code\mmomatch3\img\skin\emojione-animals\balls\9.png"
     inkscape:export-xdpi="146.99001"
     inkscape:export-ydpi="146.99001">
    <path
       d="m34.541 55.2c-.096 1.051-2.6 1.699-5.596 1.445-2.996-.252-5.348-1.309-5.253-2.361.096-1.051 2.42.293 5.416.547 2.997.252 5.529-.684 5.433.369"
       id="path14" />
    <path
       d="m44.01 55.2c.094 1.051 2.6 1.699 5.596 1.445 2.996-.252 5.348-1.309 5.252-2.361-.094-1.051-2.42.293-5.416.547-2.997.252-5.528-.684-5.432.369"
       id="path16" />
  </g>
  <g
     fill="#4c5359"
     id="g18"
     inkscape:export-filename="C:\Users\dave\Code\mmomatch3\img\skin\emojione-animals\balls\9.png"
     inkscape:export-xdpi="146.99001"
     inkscape:export-ydpi="146.99001">
    <path
       d="m39.24 60.38c1.957 2.232 8.941 2.092 11.06 0 3.037-2.994 2.908-16.652 3.037-23.313l-12.988-1.053c0 .001-3.606 21.52-1.112 24.366"
       id="path20" />
    <path
       d="m39.31 60.38c-1.955 2.232-8.944 2.092-11.06 0-3.038-2.994-2.909-16.652-3.038-23.313l12.99-1.053c-.001.001 3.605 21.52 1.111 24.366"
       id="path22" />
  </g>
  <path
     fill="#fff"
     d="m33.979 43.749l5.291 11.125 5.3-11.125z"
     id="path24"
     inkscape:export-filename="C:\Users\dave\Code\mmomatch3\img\skin\emojione-animals\balls\9.png"
     inkscape:export-xdpi="146.99001"
     inkscape:export-ydpi="146.99001" />
  <path
     fill="#4c5359"
     d="m59.904 2.199c-2.414-1.428-14.799 5.071-17.291 9.493l17.91 10.592c2.387-4.234 1.659-18.738-.619-20.09"
     id="path26"
     inkscape:export-filename="C:\Users\dave\Code\mmomatch3\img\skin\emojione-animals\balls\9.png"
     inkscape:export-xdpi="146.99001"
     inkscape:export-ydpi="146.99001" />
  <path
     fill="#f7a4a4"
     d="m56.17 8.824c-.889-.526-8.205 2.777-9.582 5.219l9.961 5.89c1.318-2.337.437-10.628-.379-11.11"
     id="path28"
     inkscape:export-filename="C:\Users\dave\Code\mmomatch3\img\skin\emojione-animals\balls\9.png"
     inkscape:export-xdpi="146.99001"
     inkscape:export-ydpi="146.99001" />
  <path
     fill="#4c5359"
     d="m18.732 2.187c-2.415 1.428-3.113 15.665-.621 20.09l17.912-10.592c-2.388-4.234-15.01-10.84-17.291-9.493"
     id="path30"
     inkscape:export-filename="C:\Users\dave\Code\mmomatch3\img\skin\emojione-animals\balls\9.png"
     inkscape:export-xdpi="146.99001"
     inkscape:export-ydpi="146.99001" />
  <path
     fill="#f7a4a4"
     d="m22.465 8.812c-.89.525-1.755 8.668-.379 11.11l9.96-5.891c-1.317-2.337-8.767-5.7-9.581-5.219"
     id="path32"
     inkscape:export-filename="C:\Users\dave\Code\mmomatch3\img\skin\emojione-animals\balls\9.png"
     inkscape:export-xdpi="146.99001"
     inkscape:export-ydpi="146.99001" />
  <path
     fill="#4c5359"
     d="m39.27 9.419c-20.773 0-22.725 14.531-22.725 22.728 0 3.362 10.177 13.853 22.725 13.853 12.549-.001 22.727-10.491 22.727-13.854 0-8.196-1.951-22.727-22.727-22.727"
     id="path34"
     inkscape:export-filename="C:\Users\dave\Code\mmomatch3\img\skin\emojione-animals\balls\9.png"
     inkscape:export-xdpi="146.99001"
     inkscape:export-ydpi="146.99001" />
  <path
     fill="#bfffab"
     d="m33.467 28.546c0 0-2.363 3.601-6.77 2.457-4.406-1.145-4.594-5.406-4.594-5.406s2.361-3.599 6.769-2.456c4.407 1.144 4.595 5.405 4.595 5.405"
     id="path36"
     inkscape:export-filename="C:\Users\dave\Code\mmomatch3\img\skin\emojione-animals\balls\9.png"
     inkscape:export-xdpi="146.99001"
     inkscape:export-ydpi="146.99001" />
  <path
     fill="#93e67f"
     d="m33.02 26.702c0 0-2.099 2.265-4.979 2.265-3.124 0-4.979-4.425-4.979-4.425s2.056-2.352 5.815-1.403c3.445.867 4.143 3.563 4.143 3.563"
     id="path38"
     inkscape:export-filename="C:\Users\dave\Code\mmomatch3\img\skin\emojione-animals\balls\9.png"
     inkscape:export-xdpi="146.99001"
     inkscape:export-ydpi="146.99001" />
  <path
     fill="#4c5359"
     d="m29.813 26.649c0 4.926-2.434 4.926-2.434 0 0-4.928 2.434-4.928 2.434 0"
     id="path40"
     inkscape:export-filename="C:\Users\dave\Code\mmomatch3\img\skin\emojione-animals\balls\9.png"
     inkscape:export-xdpi="146.99001"
     inkscape:export-ydpi="146.99001" />
  <path
     fill="#bfffab"
     d="m45.08 28.546c0 0 2.361 3.601 6.77 2.457 4.406-1.145 4.594-5.406 4.594-5.406s-2.361-3.599-6.77-2.456c-4.406 1.144-4.594 5.405-4.594 5.405"
     id="path42"
     inkscape:export-filename="C:\Users\dave\Code\mmomatch3\img\skin\emojione-animals\balls\9.png"
     inkscape:export-xdpi="146.99001"
     inkscape:export-ydpi="146.99001" />
  <path
     fill="#93e67f"
     d="m45.533 26.702c0 0 2.1 2.265 4.977 2.265 3.125 0 4.98-4.425 4.98-4.425s-2.055-2.352-5.816-1.403c-3.444.867-4.141 3.563-4.141 3.563"
     id="path44"
     inkscape:export-filename="C:\Users\dave\Code\mmomatch3\img\skin\emojione-animals\balls\9.png"
     inkscape:export-xdpi="146.99001"
     inkscape:export-ydpi="146.99001" />
  <path
     fill="#4c5359"
     d="m48.734 26.649c0 4.926 2.436 4.926 2.436 0 0-4.928-2.436-4.928-2.436 0"
     id="path46"
     inkscape:export-filename="C:\Users\dave\Code\mmomatch3\img\skin\emojione-animals\balls\9.png"
     inkscape:export-xdpi="146.99001"
     inkscape:export-ydpi="146.99001" />
  <path
     fill="#fff"
     d="m45.908 32.51c-1.98-1.504-4.17-6.486-6.635-6.486s-4.654 4.982-6.634 6.486c-3.137 2.384-11.497 5.085-11.497 5.085.001 0 8.922 7.619 18.13 7.619 9.211 0 18.13-7.619 18.13-7.619s-8.361-2.701-11.498-5.085"
     id="path48"
     inkscape:export-filename="C:\Users\dave\Code\mmomatch3\img\skin\emojione-animals\balls\9.png"
     inkscape:export-xdpi="146.99001"
     inkscape:export-ydpi="146.99001" />
  <g
     fill="#4c5359"
     id="g50"
     inkscape:export-filename="C:\Users\dave\Code\mmomatch3\img\skin\emojione-animals\balls\9.png"
     inkscape:export-xdpi="146.99001"
     inkscape:export-ydpi="146.99001">
    <path
       d="m45.729 39.31c-.732.443-1.58.623-2.398.584-.826-.059-1.607-.318-2.236-.814-.627-.477-1.09-1.158-1.225-1.91l-.592-3.332-.6 3.332c-.137.75-.596 1.434-1.227 1.91-.613.494-1.436.754-2.215.813-.863.039-1.672-.139-2.417-.582-.737-.43-1.35-1.129-1.663-2.02.044.953.567 1.879 1.317 2.518.745.639 1.764 1.016 2.723 1.057 1.041.057 2.047-.234 2.922-.822.451-.313.846-.727 1.154-1.203.311.477.703.889 1.156 1.201.861.588 1.906.881 2.9.824 1.01-.045 1.986-.418 2.742-1.057.75-.641 1.273-1.564 1.318-2.518-.31.89-.923 1.589-1.659 2.02"
       id="path52" />
    <path
       d="m42.36 33.09c-.617-.738-2.518-.795-3.086-.795-.566 0-2.469.057-3.088.795-.439.529-.098 1.838 1.074 2.965.74.713 1.447.939 2.01.939.568 0 1.275-.227 2.02-.939 1.172-1.127 1.514-2.436 1.07-2.965"
       id="path54" />
  </g>
  <g
     fill="#fff"
     id="g56"
     inkscape:export-filename="C:\Users\dave\Code\mmomatch3\img\skin\emojione-animals\balls\9.png"
     inkscape:export-xdpi="146.99001"
     inkscape:export-ydpi="146.99001">
    <path
       d="m38.959 59.62c0 1.055-2.313 1.91-5.164 1.91-2.853 0-5.165-.855-5.165-1.91 0-1.057 2.312.088 5.165.088 2.851 0 5.164-1.144 5.164-.088"
       id="path58" />
    <path
       d="m49.918 59.62c0 1.055-2.313 1.91-5.164 1.91-2.854 0-5.166-.855-5.166-1.91 0-1.057 2.313.088 5.166.088 2.851 0 5.164-1.144 5.164-.088"
       id="path60" />
  </g>
  <g
     fill="#3e4347"
     id="g62"
     inkscape:export-filename="C:\Users\dave\Code\mmomatch3\img\skin\emojione-animals\balls\9.png"
     inkscape:export-xdpi="146.99001"
     inkscape:export-ydpi="146.99001">
    <path
       d="m29.575 61.25l1.402-2.448-.424 2.768z"
       id="path64" />
    <path
       d="m33.11 61.995l.517-3.295.523 3.295z"
       id="path66" />
    <path
       d="m37.04 61.63l-.395-2.59 1.375 2.26z"
       id="path68" />
    <path
       d="m47.996 61.57l-.426-2.768 1.403 2.448z"
       id="path70" />
    <path
       d="m44.4 61.995l.518-3.295.522 3.295z"
       id="path72" />
    <path
       d="m40.533 61.3l1.367-2.26-.392 2.59z"
       id="path74" />
  </g>
</svg>
